HIERARCHY
ROOT Hips
{
	OFFSET 0.00000 0.00000 0.00000
	CHANNELS 6 Xposition Yposition Zposition Zrotation Yrotation Xrotation 
	JOINT LHipJoint
	{
		OFFSET 0 0 0
		CHANNELS 3 Zrotation Yrotation Xrotation
		JOINT LeftHip
		{
			OFFSET 1.62329 -1.80800 0.67318
			CHANNELS 3 Zrotation Yrotation Xrotation
			JOINT LeftKnee
			{
				OFFSET 2.57139 -7.06484 0.00000
				CHANNELS 3 Zrotation Yrotation Xrotation
				JOINT LeftAnkle
				{
					OFFSET 2.52017 -6.92413 0.00000
					CHANNELS 3 Zrotation Yrotation Xrotation
					JOINT LeftToe
					{
						OFFSET 0.23295 -0.64001 2.10214
						CHANNELS 3 Zrotation Yrotation Xrotation
						End Site
						{
							OFFSET 0.00000 -0.00000 1.10139
						}
					}
				}
			}
		}
	}
	JOINT RHipJoint
	{
		OFFSET 0 0 0
		CHANNELS 3 Zrotation Yrotation Xrotation
		JOINT RightHip
		{
			OFFSET -1.48061 -1.80800 0.67318
			CHANNELS 3 Zrotation Yrotation Xrotation
			JOINT RightKnee
			{
				OFFSET -2.63258 -7.23296 0.00000
				CHANNELS 3 Zrotation Yrotation Xrotation
				JOINT RightAnkle
				{
					OFFSET -2.54779 -7.00000 0.00000
					CHANNELS 3 Zrotation Yrotation Xrotation
					JOINT RightToe
					{
						OFFSET -0.23067 -0.63376 2.12161
						CHANNELS 3 Zrotation Yrotation Xrotation
						End Site
						{
							OFFSET -0.00000 -0.00000 1.11000
						}
					}
				}
			}
		}
	}
	JOINT lowerback
	{
		OFFSET 0 0 0
		CHANNELS 3 Zrotation Yrotation Xrotation
		JOINT Chest
		{
			OFFSET -0.02108 2.07573 -0.16981
			CHANNELS 3 Zrotation Yrotation Xrotation
			JOINT Chest2
			{
				OFFSET 0.05070 2.08439 -0.03141
				CHANNELS 3 Zrotation Yrotation Xrotation
				JOINT lowerneck
				{
					OFFSET 0 0 0
					CHANNELS 3 Zrotation Yrotation Xrotation
					JOINT Neck
					{
						OFFSET -0.10731 1.60408 0.31370
						CHANNELS 3 Zrotation Yrotation Xrotation
						JOINT Head
						{
							OFFSET 0.08411 1.65679 -0.30822
							CHANNELS 3 Zrotation Yrotation Xrotation
							End Site
							{
								OFFSET 0.03911 1.69149 -0.14146
							}
						}
					}
				}
				JOINT LeftCollar
				{
					OFFSET 0 0 0
					CHANNELS 3 Zrotation Yrotation Xrotation
					JOINT LeftShoulder
					{
						OFFSET 3.52315 0.73219 -0.54694
CHANNELS 3 Zrotation Xrotation Yrotation
						JOINT LeftElbow
						{
OFFSET 0 -5.324620 -0.000000
CHANNELS 3 Zrotation Xrotation Yrotation
							JOINT LeftWrist
							{
OFFSET 0 -3.484020 -0.000000
CHANNELS 3 Zrotation Xrotation Yrotation
								JOINT lhand
								{
									OFFSET 0 0 0
CHANNELS 3 Zrotation Xrotation Yrotation
									JOINT LFingers
									{
OFFSET 0 -0.572480 -0.000000
CHANNELS 3 Zrotation Xrotation Yrotation
										End Site
										{
OFFSET 0 -0.461540 -0.000000
										}
									}
								}
								JOINT LThumb
								{
OFFSET 0 0.000000 0.000000
CHANNELS 3 Zrotation Xrotation Yrotation
									End Site
									{
OFFSET 0 -0.468590 0.468590
									}
								}
							}
						}
					}
				}
				JOINT RightCollar
				{
					OFFSET 0 0 0
					CHANNELS 3 Zrotation Yrotation Xrotation
					JOINT RightShoulder
					{
						OFFSET -3.41766 0.93592 -0.10019
CHANNELS 3 Zrotation Xrotation Yrotation
						JOINT RightElbow
						{
OFFSET 0 -5.335890 -0.000000
CHANNELS 3 Zrotation Xrotation Yrotation
							JOINT RightWrist
							{
OFFSET 0 -3.641340 -0.000000
CHANNELS 3 Zrotation Xrotation Yrotation
								JOINT rhand
								{
									OFFSET 0 0 0
CHANNELS 3 Zrotation Xrotation Yrotation
									JOINT RFingers
									{
OFFSET 0 -0.734810 -0.000000
CHANNELS 3 Zrotation Xrotation Yrotation
										End Site
										{
OFFSET 0 -0.592420 -0.000000
										}
									}
								}
								JOINT RThumb
								{
OFFSET 0 0.000000 0.000000
CHANNELS 3 Zrotation Xrotation Yrotation
									End Site
									{
OFFSET 0 -0.601470 0.601470
									}
								}
							}
						}
					}
				}
			}
		}
	}
}
MOTION
Frames: 9
Frame Time: 0.008333333333333333
13.407300 17.884700 3.599300 -2.609300 -86.635400 9.177600 0.000000 0.000000 0.000000 -16.777000 -3.606900 -6.411800 3.333000 11.215600 33.010500 0.393200 -2.469900 -11.250100 1.619300 -8.023500 -22.785500 0.000000 0.000000 0.000000 20.180600 8.222900 -21.124500 -2.697900 -10.189200 29.591500 -0.801100 -5.222800 -19.590300 -0.418800 -4.154000 11.510200 -0.699600 -0.045300 4.233300 3.328500 -0.046900 -0.130000 3.832100 -0.009200 -2.506200 -5.938300 4.269600 -23.745600 0.533900 7.961200 23.612600 2.451700 3.047300 11.360200 -0.000000 -0.000000 0.000000 0.812100 -5.585100 -23.476600 17.342300 -27.306800 4.243200 15.513900 13.073200 -23.540300 0.000000 0.000000 0.000000 -7.125000 0.000000 0.000000 -14.321100 53.736500 3.126000 -0.000000 -0.000000 0.000000 -6.239600 0.527600 12.448500 -17.105500 -26.996600 -4.135100 -22.486400 17.880100 -2.687300 0.000000 0.000000 0.000000 7.125000 0.000000 -0.000000 3.147100 27.068400 1.372200
13.366370 17.881451 3.541793 -4.877570 -86.791471 11.896434 0.000000 0.000000 0.000000 -16.354225 -4.516802 -9.561100 4.256620 12.492978 37.501061 0.354545 -2.395878 -10.674157 1.598460 -7.974191 -22.635641 0.000000 0.000000 0.000000 20.543847 8.132571 -21.638582 -2.696019 -10.185958 29.580977 -0.776765 -5.154066 -19.300727 -0.367280 -3.892918 10.775517 -0.290076 0.140718 4.246685 3.245595 0.222096 -0.199649 3.497134 0.120890 -2.602536 -6.204003 4.083839 -23.928901 1.048098 7.675768 23.755750 2.647778 2.959246 11.421011 0.000000 0.000000 0.000000 0.051389 -5.976177 -22.729780 16.212417 -25.807542 3.738071 14.985389 14.724431 -22.940598 0.000000 0.000000 0.000000 -7.125000 0.000000 0.000000 -14.566591 53.051569 2.934314 0.000000 0.000000 0.000000 -6.398800 0.067203 12.201667 -16.899396 -26.724888 -4.041988 -22.301641 18.736648 -2.572589 0.000000 0.000000 0.000000 7.125000 0.000000 0.000000 3.290510 27.195566 1.425070
13.292810 17.868627 3.498562 -1.520973 -87.467494 8.286526 0.000000 0.000000 0.000000 -16.602807 -4.887453 -10.976126 4.794846 13.148842 39.928463 0.494795 -3.808920 -12.531501 1.474307 -7.672059 -21.722623 0.000000 0.000000 0.000000 20.560810 8.220504 -21.298224 -2.755389 -10.288204 29.915034 -0.799746 -4.827754 -19.318172 -0.288353 -3.453301 9.543405 -0.308825 0.403897 4.262477 3.037365 0.562007 0.098452 3.268804 0.285533 -2.323482 -6.046953 4.029351 -23.951116 1.310465 7.472925 23.903770 2.693064 2.913221 11.481668 0.000000 0.000000 0.000000 -0.328099 -6.391210 -22.422698 15.144678 -24.347039 3.285428 16.432311 16.340827 -23.019138 0.000000 0.000000 0.000000 -7.125000 0.000000 0.000000 -13.167520 53.390017 2.754548 0.000000 0.000000 0.000000 -6.698038 -0.521426 12.434797 -16.583825 -26.305833 -3.901106 -22.129951 18.821803 -2.552341 0.000000 0.000000 0.000000 7.125000 0.000000 0.000000 3.422467 27.220512 1.480426
13.224626 17.858128 3.456128 6.378147 -87.950176 0.363537 0.000000 0.000000 0.000000 -17.065339 -5.548247 -12.113792 4.942597 13.318793 40.573893 0.651686 -4.764794 -14.379657 1.486896 -7.700387 -21.809441 0.000000 0.000000 0.000000 20.383242 8.557197 -21.238744 -2.860678 -10.465993 30.499282 -0.857613 -4.350990 -19.593312 -0.441610 -4.256885 11.801654 -0.529209 0.621812 4.202701 2.897308 0.841061 0.114343 3.230688 0.427571 -2.291167 -6.224645 3.952109 -23.650146 1.655601 7.309762 24.148685 2.820327 2.861586 11.499926 0.000000 0.000000 0.000000 -0.848816 -6.268500 -21.699568 14.360988 -23.248242 2.969146 16.578803 18.220067 -23.000541 0.000000 0.000000 0.000000 -7.125000 0.000000 0.000000 -13.013094 53.398383 2.723704 0.000000 0.000000 0.000000 -6.976806 -0.892255 11.771944 -16.319147 -25.951439 -3.784552 -21.873998 19.636029 -2.684607 0.000000 0.000000 0.000000 7.125000 0.000000 0.000000 3.615910 27.083036 1.576509
13.145786 17.846593 3.433669 22.996412 -88.260383 -16.289275 0.000000 0.000000 0.000000 -17.900355 -5.740224 -12.861931 4.693433 13.029755 39.480312 0.817199 -5.390010 -16.116117 1.441918 -7.590534 -21.477583 0.000000 0.000000 0.000000 19.845363 9.047556 -21.221439 -3.018081 -10.724207 31.355304 -0.992657 -3.452287 -20.365789 -0.637486 -5.108050 14.217036 -0.663543 0.862586 4.045866 2.603790 1.155229 0.052507 2.984168 0.587513 -2.282179 -6.354307 3.783652 -23.335554 1.958370 7.011455 24.605320 2.911062 2.736075 11.608616 0.000000 0.000000 0.000000 -1.074948 -5.816344 -21.428721 13.821806 -22.479314 2.759639 15.920356 18.599476 -22.443007 0.000000 0.000000 0.000000 -7.125000 0.000000 0.000000 -13.422440 52.726953 2.589551 0.000000 0.000000 0.000000 -7.179814 -0.857277 11.773207 -16.292164 -25.915229 -3.772743 -22.543232 19.486425 -2.014768 0.000000 0.000000 0.000000 7.125000 0.000000 0.000000 3.115204 27.794238 1.305073
13.059023 17.819056 3.417886 30.243604 -88.787885 -23.825661 0.000000 0.000000 0.000000 -18.224212 -5.965491 -12.903919 4.192327 12.411644 37.204828 0.909110 -6.471360 -17.009191 1.135485 -6.765526 -19.023265 0.000000 0.000000 0.000000 20.045535 9.122695 -20.937696 -3.153863 -10.940024 32.077822 -1.050201 -2.917604 -20.615796 -0.564625 -4.812610 13.374774 -0.269188 1.013132 4.056199 2.379990 1.372543 0.000828 2.516675 0.691903 -2.338412 -6.204127 3.860069 -22.806610 2.128684 6.968327 24.811952 2.931731 2.746700 11.584203 0.000000 0.000000 0.000000 -1.130909 -5.035844 -20.639802 13.467838 -21.968751 2.625685 15.524336 18.828161 -22.767596 0.000000 0.000000 0.000000 -7.125000 0.000000 0.000000 -13.956403 52.977288 2.782418 0.000000 0.000000 0.000000 -7.231489 -0.692999 11.947957 -16.450833 -26.128170 -3.842418 -22.208952 19.235003 -1.704043 0.000000 0.000000 0.000000 7.125000 0.000000 0.000000 3.380384 28.133696 1.389526
12.966922 17.773893 3.409893 42.067149 -89.191919 -35.832724 0.000000 0.000000 0.000000 -18.603503 -6.186069 -12.874023 3.511524 11.478824 33.914115 0.908238 -7.386807 -17.039999 1.425709 -7.549663 -21.354746 0.000000 0.000000 0.000000 20.178840 9.385728 -20.779104 -3.329371 -11.209961 32.991444 -1.082732 -2.945919 -20.922776 -0.338476 -3.738812 10.342961 -0.164242 1.057696 3.841540 2.366887 1.435793 -0.064494 2.443235 0.722477 -2.285168 -6.087932 3.949979 -22.477436 2.041699 7.050158 25.112622 2.892094 2.767515 11.640473 0.000000 0.000000 0.000000 -1.336351 -4.261690 -19.894675 13.184325 -21.556682 2.520679 15.104714 18.353445 -23.191054 0.000000 0.000000 0.000000 -7.125000 0.000000 0.000000 -14.564304 53.318598 3.030501 0.000000 0.000000 0.000000 -7.494494 -0.506329 11.976153 -16.719345 -26.486320 -3.961425 -22.126945 19.653071 -1.630552 0.000000 0.000000 0.000000 7.125000 0.000000 0.000000 3.445943 28.213673 1.409566
12.875773 17.734062 3.394024 23.330403 -89.495307 -17.212257 0.000000 0.000000 0.000000 -18.679071 -6.451834 -12.916990 2.909713 10.547338 30.768150 0.861126 -6.723804 -16.562201 1.034028 -6.467349 -18.146872 0.000000 0.000000 0.000000 20.661104 9.262822 -20.660062 -3.458319 -11.402441 33.649449 -1.202812 -1.757275 -21.422276 -0.487858 -4.478655 12.427375 0.048733 1.053639 3.565459 2.476919 1.438777 -0.159375 2.440744 0.721690 -2.225561 -6.179120 3.929128 -22.158716 2.154809 6.991789 25.307498 2.934776 2.738664 11.647160 0.000000 0.000000 0.000000 -1.706382 -3.582901 -18.911515 12.891135 -21.127539 2.413899 14.976155 18.563675 -23.896595 0.000000 0.000000 0.000000 -7.125000 0.000000 0.000000 -15.027639 53.986243 3.378152 0.000000 0.000000 0.000000 -8.010918 -0.272653 13.127786 -17.115328 -27.009645 -4.139580 -22.501645 17.627217 -2.355800 0.000000 0.000000 0.000000 7.125000 0.000000 0.000000 3.140811 27.426279 1.342991
12.794413 17.722981 3.390386 -27.181085 -89.563015 33.379820 0.000000 0.000000 0.000000 -18.604714 -6.606623 -13.082536 2.647393 10.101042 29.304741 0.832255 -3.739987 -16.383921 0.358284 -3.845542 -10.642481 0.000000 0.000000 0.000000 21.119828 9.066274 -20.535894 -3.475010 -11.426957 33.733826 -1.192938 -1.362386 -21.170881 -0.368626 -3.899910 10.795364 0.375159 1.042342 3.156396 2.559306 1.433164 -0.301724 2.348301 0.715127 -2.136042 -6.151316 3.949841 -22.047667 2.410248 6.927912 25.639651 3.022292 2.732086 11.743936 0.000000 0.000000 0.000000 -1.874600 -3.093921 -18.250738 12.401420 -20.403909 2.240271 15.025997 18.704364 -23.928104 0.000000 0.000000 0.000000 -7.125000 0.000000 0.000000 -14.993840 54.026389 3.385225 0.000000 0.000000 0.000000 -8.209216 -0.090801 13.147497 -17.571165 -27.604532 -4.348702 -19.439037 17.850603 -2.511338 0.000000 0.000000 0.000000 7.125000 0.000000 0.000000 5.485930 27.305637 2.368491
